<mxfile host="Electron" agent="Mozilla/5.0 (Windows NT 10.0; Win64; x64) AppleWebKit/537.36 (KHTML, like Gecko) draw.io/24.7.17 Chrome/128.0.6613.36 Electron/32.0.1 Safari/537.36" version="24.7.17">
  <diagram name="Page-1" id="ApEzjJhHmiZ-eSh_hU6g">
    <mxGraphModel dx="1098" dy="882" grid="1" gridSize="10" guides="1" tooltips="1" connect="1" arrows="1" fold="1" page="1" pageScale="1" pageWidth="827" pageHeight="1169" math="0" shadow="0">
      <root>
        <mxCell id="0" />
        <mxCell id="1" parent="0" />
        <mxCell id="URGIG8EVkKLjE_SIaqOK-1" value="Drone" style="rounded=0;whiteSpace=wrap;html=1;" vertex="1" parent="1">
          <mxGeometry x="80" y="240" width="160" height="30" as="geometry" />
        </mxCell>
        <mxCell id="URGIG8EVkKLjE_SIaqOK-2" value="- _charge : int&lt;div&gt;- _name : string&lt;/div&gt;&lt;div&gt;- _x : int&lt;/div&gt;&lt;div&gt;- _y : int&lt;/div&gt;&lt;div&gt;- _lowBattery : bool&lt;/div&gt;&lt;div&gt;- _NoFlightzone : rectangle&lt;/div&gt;&lt;div&gt;- _evacuationState&lt;/div&gt;&lt;div&gt;+ Charge {get; set}&lt;/div&gt;&lt;div&gt;+ Name&amp;nbsp;&lt;span style=&quot;background-color: initial;&quot;&gt;{get; set}&lt;/span&gt;&lt;/div&gt;&lt;div&gt;+ X&amp;nbsp;&lt;span style=&quot;background-color: initial;&quot;&gt;{get; set}&lt;/span&gt;&lt;/div&gt;&lt;div&gt;+ Y&amp;nbsp;&lt;span style=&quot;background-color: initial;&quot;&gt;{get; set}&lt;/span&gt;&lt;/div&gt;&lt;div&gt;+ LowBattery&amp;nbsp;&lt;span style=&quot;background-color: initial;&quot;&gt;{get}&lt;/span&gt;&lt;/div&gt;" style="rounded=0;whiteSpace=wrap;html=1;align=left;" vertex="1" parent="1">
          <mxGeometry x="80" y="270" width="160" height="200" as="geometry" />
        </mxCell>
        <mxCell id="URGIG8EVkKLjE_SIaqOK-3" value="+ Drone (int, int)" style="rounded=0;whiteSpace=wrap;html=1;align=left;" vertex="1" parent="1">
          <mxGeometry x="80" y="470" width="160" height="40" as="geometry" />
        </mxCell>
        <mxCell id="URGIG8EVkKLjE_SIaqOK-5" value="Factory" style="rounded=0;whiteSpace=wrap;html=1;" vertex="1" parent="1">
          <mxGeometry x="320" y="240" width="160" height="30" as="geometry" />
        </mxCell>
        <mxCell id="URGIG8EVkKLjE_SIaqOK-6" value="Store" style="rounded=0;whiteSpace=wrap;html=1;" vertex="1" parent="1">
          <mxGeometry x="560" y="240" width="160" height="30" as="geometry" />
        </mxCell>
        <mxCell id="URGIG8EVkKLjE_SIaqOK-7" value="Building" style="rounded=0;whiteSpace=wrap;html=1;" vertex="1" parent="1">
          <mxGeometry x="440" y="440" width="160" height="30" as="geometry" />
        </mxCell>
        <mxCell id="URGIG8EVkKLjE_SIaqOK-8" value="" style="rounded=0;whiteSpace=wrap;html=1;" vertex="1" parent="1">
          <mxGeometry x="320" y="270" width="160" height="130" as="geometry" />
        </mxCell>
        <mxCell id="URGIG8EVkKLjE_SIaqOK-9" value="" style="rounded=0;whiteSpace=wrap;html=1;" vertex="1" parent="1">
          <mxGeometry x="560" y="270" width="160" height="130" as="geometry" />
        </mxCell>
        <mxCell id="URGIG8EVkKLjE_SIaqOK-10" value="" style="rounded=0;whiteSpace=wrap;html=1;" vertex="1" parent="1">
          <mxGeometry x="440" y="470" width="160" height="130" as="geometry" />
        </mxCell>
        <mxCell id="URGIG8EVkKLjE_SIaqOK-20" value="Classname" style="swimlane;fontStyle=1;align=center;verticalAlign=top;childLayout=stackLayout;horizontal=1;startSize=26;horizontalStack=0;resizeParent=1;resizeParentMax=0;resizeLast=0;collapsible=1;marginBottom=0;whiteSpace=wrap;html=1;" vertex="1" parent="1">
          <mxGeometry x="200" y="610" width="160" height="86" as="geometry" />
        </mxCell>
        <mxCell id="URGIG8EVkKLjE_SIaqOK-21" value="+ field: type" style="text;strokeColor=none;fillColor=none;align=left;verticalAlign=top;spacingLeft=4;spacingRight=4;overflow=hidden;rotatable=0;points=[[0,0.5],[1,0.5]];portConstraint=eastwest;whiteSpace=wrap;html=1;" vertex="1" parent="URGIG8EVkKLjE_SIaqOK-20">
          <mxGeometry y="26" width="160" height="26" as="geometry" />
        </mxCell>
        <mxCell id="URGIG8EVkKLjE_SIaqOK-22" value="" style="line;strokeWidth=1;fillColor=none;align=left;verticalAlign=middle;spacingTop=-1;spacingLeft=3;spacingRight=3;rotatable=0;labelPosition=right;points=[];portConstraint=eastwest;strokeColor=inherit;" vertex="1" parent="URGIG8EVkKLjE_SIaqOK-20">
          <mxGeometry y="52" width="160" height="8" as="geometry" />
        </mxCell>
        <mxCell id="URGIG8EVkKLjE_SIaqOK-23" value="+ method(type): type" style="text;strokeColor=none;fillColor=none;align=left;verticalAlign=top;spacingLeft=4;spacingRight=4;overflow=hidden;rotatable=0;points=[[0,0.5],[1,0.5]];portConstraint=eastwest;whiteSpace=wrap;html=1;" vertex="1" parent="URGIG8EVkKLjE_SIaqOK-20">
          <mxGeometry y="60" width="160" height="26" as="geometry" />
        </mxCell>
      </root>
    </mxGraphModel>
  </diagram>
</mxfile>
